<svg width="19" height="18" viewBox="0 0 19 18" fill="none" xmlns="http://www.w3.org/2000/svg">
<path d="M0.5 9C0.5 4.02944 4.52944 0 9.5 0V0C14.4706 0 18.5 4.02944 18.5 9V9C18.5 13.9706 14.4706 18 9.5 18V18C4.52944 18 0.5 13.9706 0.5 9V9Z" fill="black"/>
<path d="M7.25307 5.03979L9.49011 7.78792C10.3938 7.86348 11.1224 7.70715 10.8958 6.82423C10.7597 6.29418 9.9479 6.42 9.47919 6.34518L8.43575 5.07627L8.48262 5.0022C9.91559 5.18682 12.3083 4.60094 13.0036 6.03065C13.3362 6.71517 13.288 7.63605 12.6404 8.18061C12.5867 8.22565 12.3069 8.33136 12.3724 8.38869C12.858 8.53162 13.2302 8.89826 13.3754 9.29952C13.6511 10.06 13.4996 11.1986 12.6145 11.6583C12.3337 11.8042 11.6261 12 11.303 12H8.41346L9.47965 10.6946C10.165 10.5874 11.1046 10.8212 11.1884 10.0082C11.2858 9.06576 10.4312 9.15286 9.57202 9.16812L7.25262 12H4.5L7.2285 8.52008L4.52457 5.11238L4.5 5.00257C4.55006 4.98805 4.59966 5.03979 4.61331 5.03979H7.25262H7.25307Z" fill="white"/>
</svg>
