<svg width="25" height="24" viewBox="0 0 25 24" fill="none" xmlns="http://www.w3.org/2000/svg">
<path d="M5.375 5H18.8818C20.1613 5 21.1117 6.18483 20.8341 7.43386L19.723 12.4339C19.5197 13.3489 18.7081 14 17.7707 14H8.97934C8.04195 14 7.23032 13.3489 7.02697 12.4339L5.375 5ZM5.375 5L4.92779 4.10557C4.589 3.428 3.89648 3 3.13893 3H2.375M11.375 19C11.375 20.1046 10.4796 21 9.375 21C8.27043 21 7.375 20.1046 7.375 19C7.375 17.8954 8.27043 17 9.375 17C10.4796 17 11.375 17.8954 11.375 19ZM19.375 19C19.375 20.1046 18.4796 21 17.375 21C16.2704 21 15.375 20.1046 15.375 19C15.375 17.8954 16.2704 17 17.375 17C18.4796 17 19.375 17.8954 19.375 19Z" stroke="#17181A" stroke-opacity="0.6" stroke-width="2" stroke-linecap="round" stroke-linejoin="round"/>
</svg>
