<svg width="18" height="18" viewBox="0 0 18 18" fill="none" xmlns="http://www.w3.org/2000/svg">
<path d="M0 9C0 4.02944 4.02944 0 9 0V0C13.9706 0 18 4.02944 18 9V9C18 13.9706 13.9706 18 9 18V18C4.02944 18 0 13.9706 0 9V9Z" fill="black"/>
<path d="M6.75307 5.03979L8.99011 7.78792C9.89385 7.86348 10.6224 7.70715 10.3958 6.82423C10.2597 6.29418 9.4479 6.42 8.97919 6.34518L7.93575 5.07627L7.98262 5.0022C9.41559 5.18682 11.8083 4.60094 12.5036 6.03065C12.8362 6.71517 12.788 7.63605 12.1404 8.18061C12.0867 8.22565 11.8069 8.33136 11.8724 8.38869C12.358 8.53162 12.7302 8.89826 12.8754 9.29952C13.1511 10.06 12.9996 11.1986 12.1145 11.6583C11.8337 11.8042 11.1261 12 10.803 12H7.91346L8.97965 10.6946C9.66496 10.5874 10.6046 10.8212 10.6884 10.0082C10.7858 9.06576 9.93116 9.15286 9.07202 9.16812L6.75262 12H4L6.7285 8.52008L4.02457 5.11238L4 5.00257C4.05006 4.98805 4.09966 5.03979 4.11331 5.03979H6.75262H6.75307Z" fill="white"/>
</svg>
