<svg width="25" height="24" viewBox="0 0 25 24" fill="none" xmlns="http://www.w3.org/2000/svg">
<path d="M12.125 13C14.2467 13 16.2816 13.8429 17.7818 15.3431C18.3258 15.8871 18.7834 16.5013 19.1456 17.1645C20.2047 19.1032 18.3341 21 16.125 21H8.12499C5.91585 21 4.04528 19.1032 5.10436 17.1645C5.46663 16.5013 5.92417 15.8871 6.46814 15.3431C7.96843 13.8429 10.0033 13 12.125 13ZM12.125 13C14.8864 13 17.125 10.7614 17.125 8C17.125 5.23858 14.8864 3 12.125 3C9.36357 3 7.12499 5.23858 7.12499 8C7.12499 10.7614 9.36357 13 12.125 13Z" stroke="black" stroke-opacity="0.6" stroke-width="2"/>
</svg>
