<svg width="25" height="24" viewBox="0 0 25 24" fill="none" xmlns="http://www.w3.org/2000/svg">
<path d="M0.5 12C0.5 5.37258 5.87258 0 12.5 0V0C19.1274 0 24.5 5.37258 24.5 12V12C24.5 18.6274 19.1274 24 12.5 24V24C5.87258 24 0.5 18.6274 0.5 12V12Z" fill="black"/>
<path d="M9.47666 6.06253L12.7079 10.381C14.0133 10.4998 15.0657 10.2541 14.7383 8.86665C14.5418 8.03372 13.3692 8.23142 12.6922 8.11385L11.185 6.11985L11.2527 6.00345C13.3225 6.29357 16.7786 5.37291 17.7829 7.61959C18.2634 8.69527 18.1938 10.1424 17.2584 10.9981C17.1809 11.0689 16.7766 11.235 16.8713 11.3251C17.5726 11.5497 18.1103 12.1258 18.32 12.7564C18.7183 13.9514 18.4994 15.7407 17.221 16.463C16.8154 16.6923 15.7933 17 15.3266 17H11.1528L12.6928 14.9487C13.6827 14.7802 15.04 15.1476 15.161 13.8701C15.3016 12.3891 14.0672 12.5259 12.8263 12.5499L9.476 17H5.5L9.44116 11.5316L5.53549 6.17659L5.5 6.00404C5.5723 5.98123 5.64395 6.06253 5.66367 6.06253H9.476H9.47666Z" fill="white"/>
</svg>
