<svg width="24" height="24" viewBox="0 0 24 24" fill="none" xmlns="http://www.w3.org/2000/svg">
<path d="M0 12C0 5.37258 5.37258 0 12 0V0C18.6274 0 24 5.37258 24 12V12C24 18.6274 18.6274 24 12 24V24C5.37258 24 0 18.6274 0 12V12Z" fill="black"/>
<path d="M8.97666 6.06253L12.2079 10.381C13.5133 10.4998 14.5657 10.2541 14.2383 8.86665C14.0418 8.03372 12.8692 8.23142 12.1922 8.11385L10.685 6.11985L10.7527 6.00345C12.8225 6.29357 16.2786 5.37291 17.2829 7.61959C17.7634 8.69527 17.6938 10.1424 16.7584 10.9981C16.6809 11.0689 16.2766 11.235 16.3713 11.3251C17.0726 11.5497 17.6103 12.1258 17.82 12.7564C18.2183 13.9514 17.9994 15.7407 16.721 16.463C16.3154 16.6923 15.2933 17 14.8266 17H10.6528L12.1928 14.9487C13.1827 14.7802 14.54 15.1476 14.661 13.8701C14.8016 12.3891 13.5672 12.5259 12.3263 12.5499L8.976 17H5L8.94116 11.5316L5.03549 6.17659L5 6.00404C5.0723 5.98123 5.14395 6.06253 5.16367 6.06253H8.976H8.97666Z" fill="white"/>
</svg>
